<?xml version="1.0" encoding="UTF-8"?>
<svg version="1.1" xmlns="http://www.w3.org/2000/svg" width="512" height="512">
<path d="M0 0 C2.66647346 -0.00243303 5.33292217 -0.00604234 7.99938965 -0.01106262 C14.44385173 -0.02047076 20.88820052 -0.01402215 27.33265408 -0.00179968 C34.85900076 0.01193434 42.38532155 0.01017257 49.91167758 0.00806699 C63.35080938 0.00488893 76.7898879 0.01647767 90.22900391 0.03613281 C103.23097352 0.05514325 116.23288076 0.06221588 129.23486328 0.05664062 C143.44248558 0.05056629 157.65008059 0.05078924 171.85770065 0.06212646 C173.37596214 0.06333358 174.89422363 0.06453956 176.41248512 0.0657444 C177.15923107 0.06634794 177.90597701 0.06695148 178.67535162 0.06757331 C183.90588728 0.07143211 189.13641269 0.07106683 194.36694908 0.06915855 C200.74980876 0.06702419 207.13261419 0.07235411 213.51545867 0.08677211 C216.76410365 0.09395507 220.01265527 0.09705704 223.26130867 0.09352875 C255.82268873 0.06354575 255.82268873 0.06354575 271.28637695 4.68481445 C272.03669189 4.90210205 272.78700684 5.11938965 273.56005859 5.34326172 C284.03964062 8.46118175 293.57606457 12.92130717 303.03637695 18.37231445 C303.99672852 18.91500977 304.95708008 19.45770508 305.9465332 20.0168457 C311.22712935 23.06934221 311.22712935 23.06934221 313.03637695 24.37231445 C313.03637695 25.03231445 313.03637695 25.69231445 313.03637695 26.37231445 C314.68637695 27.03231445 316.33637695 27.69231445 318.03637695 28.37231445 C318.03637695 29.03231445 318.03637695 29.69231445 318.03637695 30.37231445 C319.68637695 31.03231445 321.33637695 31.69231445 323.03637695 32.37231445 C323.03637695 33.03231445 323.03637695 33.69231445 323.03637695 34.37231445 C324.35637695 35.03231445 325.67637695 35.69231445 327.03637695 36.37231445 C327.03637695 37.03231445 327.03637695 37.69231445 327.03637695 38.37231445 C327.67575195 38.64043945 328.31512695 38.90856445 328.97387695 39.18481445 C331.03637695 40.37231445 331.03637695 40.37231445 332.03637695 43.37231445 C333.02637695 43.70231445 334.01637695 44.03231445 335.03637695 44.37231445 C337.0793457 46.55200195 337.0793457 46.55200195 339.22387695 49.24731445 C339.93930664 50.13161133 340.65473633 51.0159082 341.3918457 51.92700195 C343.03637695 54.37231445 343.03637695 54.37231445 343.03637695 57.37231445 C343.69637695 57.37231445 344.35637695 57.37231445 345.03637695 57.37231445 C358.42579996 77.00114113 366.18751419 100.30172801 366.18354797 124.02020264 C366.18722466 125.20094274 366.19090135 126.38168284 366.19468945 127.59820294 C366.20378818 130.86776009 366.20841982 134.13728773 366.21107876 137.40685534 C366.21499386 140.93678736 366.22457154 144.46670501 366.23329163 147.99662781 C366.25302535 156.51931404 366.26311977 165.04200141 366.27201942 173.56470478 C366.27640867 177.58502013 366.28177394 181.60533418 366.28700829 185.6256485 C366.30401989 199.00294598 366.31851089 212.38024266 366.32575703 225.75754929 C366.32766672 229.22663118 366.32958708 232.69571306 366.33154297 236.16479492 C366.33202671 237.02694922 366.33251045 237.88910353 366.33300885 238.77738371 C366.34129729 252.72288066 366.36661442 266.6682915 366.39912365 280.6137509 C366.43227833 294.95388684 366.45021349 309.29397916 366.45340127 323.6341536 C366.45555894 331.67634055 366.46419777 339.71840205 366.48986244 347.76055145 C366.51168493 354.61433537 366.51956374 361.46796337 366.50989566 368.32177809 C366.50538365 371.81168088 366.50705319 375.3012628 366.5266571 378.79112053 C366.61156989 396.87132261 365.79911236 413.65872332 358.78637695 430.55981445 C358.49335693 431.28974609 358.20033691 432.01967773 357.8984375 432.77172852 C353.94187815 442.37234111 349.18116403 451.97571099 343.03637695 460.37231445 C342.37637695 460.37231445 341.71637695 460.37231445 341.03637695 460.37231445 C340.37637695 462.02231445 339.71637695 463.67231445 339.03637695 465.37231445 C338.37637695 465.37231445 337.71637695 465.37231445 337.03637695 465.37231445 C336.37637695 467.02231445 335.71637695 468.67231445 335.03637695 470.37231445 C334.37637695 470.37231445 333.71637695 470.37231445 333.03637695 470.37231445 C332.37637695 471.69231445 331.71637695 473.01231445 331.03637695 474.37231445 C330.37637695 474.37231445 329.71637695 474.37231445 329.03637695 474.37231445 C328.37637695 475.69231445 327.71637695 477.01231445 327.03637695 478.37231445 C326.37637695 478.37231445 325.71637695 478.37231445 325.03637695 478.37231445 C324.69413086 479.23083008 324.69413086 479.23083008 324.3449707 480.10668945 C322.68548291 482.9798325 320.69348038 484.56491967 318.09887695 486.62231445 C317.22360352 487.3287207 316.34833008 488.03512695 315.4465332 488.76293945 C313.03637695 490.37231445 313.03637695 490.37231445 310.03637695 490.37231445 C310.03637695 491.03231445 310.03637695 491.69231445 310.03637695 492.37231445 C300.99484756 498.53981818 290.96495788 503.77347074 280.4074707 506.6887207 C278.19816171 507.3256714 276.10864667 508.08513383 273.97387695 508.93481445 C265.52666564 512.14433342 257.51883804 512.66268611 248.53178406 512.63301086 C247.29524466 512.63683641 246.05870526 512.64066196 244.78469497 512.64460343 C241.37344521 512.65310368 237.9624123 512.65271242 234.55116904 512.64842284 C230.86393529 512.64594793 227.17672647 512.65497929 223.48950195 512.66246033 C216.27367491 512.67518846 209.05788511 512.67700335 201.84204873 512.67466006 C195.97422693 512.67287451 190.10641641 512.67463162 184.23859596 512.67888451 C183.40234559 512.6794797 182.56609522 512.68007488 181.70450393 512.68068811 C180.00545551 512.68189991 178.30640709 512.68311404 176.60735867 512.68433049 C160.68492191 512.69519891 144.76250633 512.69304693 128.84006838 512.68694564 C114.28933628 512.68177798 99.73867116 512.69302919 85.1879523 512.71204386 C70.23075896 512.73143915 55.27359728 512.73967524 40.31639129 512.73592061 C31.92571007 512.73401102 23.53508584 512.73647242 15.1444149 512.75063515 C8.00068901 512.76257154 0.85705518 512.76392864 -6.28667203 512.75184498 C-9.92768514 512.74597189 -13.56853005 512.74481302 -17.20953178 512.75684738 C-21.16579677 512.76977119 -25.12180927 512.7592043 -29.07807922 512.74653625 C-30.21594338 512.75391054 -31.35380754 512.76128482 -32.52615243 512.76888257 C-42.70863917 512.70054604 -51.70204378 510.59689447 -60.96362305 506.37231445 C-62.98402314 505.64194821 -65.00491328 504.91293701 -67.02612305 504.18481445 C-74.50372582 501.34073201 -81.12969843 497.49682956 -87.96362305 493.37231445 C-88.92268555 492.83864258 -89.88174805 492.3049707 -90.86987305 491.75512695 C-91.56081055 491.29879883 -92.25174805 490.8424707 -92.96362305 490.37231445 C-92.96362305 489.71231445 -92.96362305 489.05231445 -92.96362305 488.37231445 C-94.61362305 487.71231445 -96.26362305 487.05231445 -97.96362305 486.37231445 C-97.96362305 485.71231445 -97.96362305 485.05231445 -97.96362305 484.37231445 C-98.52049805 484.12481445 -99.07737305 483.87731445 -99.65112305 483.62231445 C-102.38773218 482.14306627 -104.64013174 480.43764006 -106.96362305 478.37231445 C-106.96362305 477.71231445 -106.96362305 477.05231445 -106.96362305 476.37231445 C-108.28362305 475.71231445 -109.60362305 475.05231445 -110.96362305 474.37231445 C-110.96362305 473.71231445 -110.96362305 473.05231445 -110.96362305 472.37231445 C-111.52436523 472.16348633 -112.08510742 471.9546582 -112.6628418 471.73950195 C-115.76888046 469.89380835 -117.64733668 467.34600417 -119.77612305 464.49731445 C-120.21335693 463.91941162 -120.65059082 463.34150879 -121.10107422 462.74609375 C-125.20597223 457.22145657 -128.69552755 451.42839863 -131.96362305 445.37231445 C-132.62104492 444.2140918 -132.62104492 444.2140918 -133.29174805 443.0324707 C-136.12747252 437.7827909 -138.16044967 432.31605883 -140.08862305 426.68481445 C-140.45129272 425.64429932 -140.45129272 425.64429932 -140.82128906 424.58276367 C-141.6090211 422.19554968 -142.29166274 419.79486465 -142.96362305 417.37231445 C-143.22157182 416.45308606 -143.47952059 415.53385767 -143.74528599 414.58677387 C-146.76691137 401.95095655 -146.40003729 389.21820882 -146.3704561 376.29318297 C-146.36567945 372.76952879 -146.37827359 369.24592684 -146.38847351 365.72229004 C-146.4055801 358.83813398 -146.4065185 351.95406951 -146.40126061 345.06989773 C-146.39720216 339.46828419 -146.39868223 333.8666975 -146.40400887 328.26508522 C-146.40475729 327.46468446 -146.40550571 326.6642837 -146.40627681 325.83962837 C-146.40780845 324.21306754 -146.4093468 322.58650671 -146.41089178 320.95994589 C-146.42458755 305.74118397 -146.41919991 290.5224736 -146.40770657 275.30371288 C-146.39777879 261.41697677 -146.41071218 247.53037398 -146.43464076 233.64365842 C-146.45909315 219.34390589 -146.4686245 205.04421529 -146.46198803 190.74444228 C-146.45850921 182.73258543 -146.46063878 174.720831 -146.47823906 166.7089901 C-146.4930382 159.88834485 -146.49349678 153.06787415 -146.47616815 146.24723204 C-146.46771834 142.77550678 -146.46535847 139.30409228 -146.4808197 135.83238411 C-146.54592658 117.35108713 -145.5547892 100.4652411 -138.27612305 83.24731445 C-137.77218018 82.01863647 -137.77218018 82.01863647 -137.25805664 80.76513672 C-133.35823903 71.52208575 -128.52777716 62.71854563 -122.96362305 54.37231445 C-122.30362305 54.37231445 -121.64362305 54.37231445 -120.96362305 54.37231445 C-120.30362305 52.72231445 -119.64362305 51.07231445 -118.96362305 49.37231445 C-118.30362305 49.37231445 -117.64362305 49.37231445 -116.96362305 49.37231445 C-116.71612305 48.81543945 -116.46862305 48.25856445 -116.21362305 47.68481445 C-114.73437487 44.94820532 -113.02894865 42.69580576 -110.96362305 40.37231445 C-110.30362305 40.37231445 -109.64362305 40.37231445 -108.96362305 40.37231445 C-108.30362305 39.05231445 -107.64362305 37.73231445 -106.96362305 36.37231445 C-106.30362305 36.37231445 -105.64362305 36.37231445 -104.96362305 36.37231445 C-104.68518555 35.54860352 -104.68518555 35.54860352 -104.40112305 34.70825195 C-102.26939697 31.24419707 -99.24998465 29.32568881 -95.96362305 26.99731445 C-95.28299805 26.50908203 -94.60237305 26.02084961 -93.90112305 25.51782227 C-64.84403654 4.86692888 -35.03924585 -0.11294525 0 0 Z " fill="#D347EA" transform="translate(145.963623046875,-0.372314453125)"/>
<path d="M0 0 C1.13273849 -0.00990463 2.26547699 -0.01980927 3.43254089 -0.03001404 C5.29035439 -0.02326157 5.29035439 -0.02326157 7.18569946 -0.01637268 C9.14721703 -0.02666756 9.14721703 -0.02666756 11.14836121 -0.03717041 C14.73319467 -0.05511725 18.31778355 -0.0539304 21.90264845 -0.04822803 C24.89712207 -0.04513767 27.89154861 -0.05122706 30.88601553 -0.05726677 C37.95225859 -0.07131603 45.01838077 -0.06974805 52.08462524 -0.05836487 C59.36923777 -0.04688905 66.6534819 -0.06094912 73.93804586 -0.08776134 C80.19636893 -0.10993202 86.45457649 -0.11655249 92.71293604 -0.11068493 C96.44893565 -0.10731667 100.18469923 -0.10972114 103.92066574 -0.12693596 C108.08867386 -0.14530293 112.25596756 -0.13120404 116.42398071 -0.11402893 C117.65847458 -0.1236969 118.89296844 -0.13336487 120.16487122 -0.14332581 C130.81382772 -0.05133239 130.81382772 -0.05133239 135.43423462 4.38768005 C139.52626597 8.97173408 138.86372604 14.41698457 138.83828735 20.23313904 C138.8451506 21.32638489 138.85201385 22.41963074 138.85908508 23.54600525 C138.87738175 27.158727 138.87351133 30.77101568 138.86782837 34.3837738 C138.87238876 36.89574322 138.87769391 39.40771139 138.88371277 41.91967773 C138.89264951 47.18452394 138.89044808 52.44925777 138.88027954 57.71409607 C138.86880033 63.79167787 138.88287253 69.86881829 138.90967602 75.94634193 C138.93453461 81.80311854 138.93700594 87.65972379 138.93055916 93.51654243 C138.93040575 96.00403134 138.93646603 98.49152866 138.94885063 100.97898674 C138.96372809 104.45726731 138.95310613 107.93457637 138.9359436 111.41282654 C138.95044556 112.9536364 138.95044556 112.9536364 138.96524048 114.52557373 C138.90380584 120.47167878 138.36608559 123.84285365 134.43423462 128.38768005 C129.97564802 132.25335321 125.17667913 131.81245898 119.56704712 131.79393005 C118.6140976 131.80476624 117.66114807 131.81560242 116.67932129 131.82676697 C113.63922321 131.86097464 110.59949967 131.87660704 107.55923462 131.88768005 C103.56148086 131.90229126 99.56455724 131.93606465 95.56704712 131.98143005 C94.6564151 131.97840881 93.74578308 131.97538757 92.80755615 131.97227478 C85.88795355 132.05322938 81.06586764 133.11490609 75.68423462 137.76268005 C70.48674642 143.82641629 70.01323002 147.9343709 70.06314087 155.7275238 C70.04576049 157.78025986 70.02817608 159.8329942 70.01040649 161.88572693 C70.00033203 165.10931041 69.99673864 168.33278264 69.9984436 171.55638123 C69.99486931 174.67626381 69.9675129 177.7952933 69.93814087 180.9150238 C69.94632339 181.87456467 69.95450592 182.83410553 69.9629364 183.82272339 C69.90005146 189.4896567 69.38627685 192.99910699 65.43423462 197.38768005 C61.69799921 200.07309456 59.15324363 200.75867763 54.57754517 200.7407074 C53.42251999 200.7443631 52.26749481 200.7480188 51.07746887 200.75178528 C49.83781876 200.74248993 48.59816864 200.73319458 47.32095337 200.72361755 C45.35955686 200.73292826 43.39815999 200.74226806 41.43677235 200.75329018 C36.61470338 200.7756608 31.79267855 200.7657901 26.97061157 200.74803162 C24.26155919 200.73919178 21.55310598 200.74372475 18.84410095 200.76185608 C16.29872421 200.77769811 13.7531171 200.77321445 11.20783997 200.74568176 C3.99936672 200.80733714 -1.05243258 201.522834 -6.56576538 206.38768005 C-11.123906 211.41332228 -11.70493193 214.56440174 -11.74154663 221.17674255 C-11.76476261 222.77441172 -11.78888064 224.37206799 -11.81381226 225.9697113 C-11.84878441 228.4842825 -11.87818861 230.99838467 -11.89169312 233.51316833 C-11.90729224 235.94327252 -11.94759206 238.37200632 -11.99154663 240.80174255 C-11.98963821 241.54163422 -11.9877298 242.28152588 -11.98576355 243.0438385 C-12.1120745 248.5102679 -13.30947228 252.92306978 -16.56576538 257.38768005 C-21.76127247 261.45776286 -27.99846234 260.85526018 -34.31576538 260.85643005 C-36.01297729 260.86785034 -36.01297729 260.86785034 -37.74447632 260.87950134 C-40.13149819 260.8902841 -42.51856716 260.8931629 -44.90560913 260.88865662 C-48.55354445 260.88768331 -52.19938293 260.92935017 -55.84701538 260.97361755 C-58.16992767 260.97882408 -60.49284726 260.98151276 -62.81576538 260.98143005 C-64.44723511 261.00602295 -64.44723511 261.00602295 -66.11166382 261.03111267 C-74.55027561 260.95422251 -74.55027561 260.95422251 -78.17514038 258.10057068 C-82.25731694 253.46810071 -82.81676596 250.57490247 -82.83319092 244.37928772 C-82.83772203 243.67364886 -82.84225314 242.96800999 -82.84692156 242.24098814 C-82.85958157 239.87657017 -82.85794419 237.51238207 -82.85629272 235.14793396 C-82.86227697 233.45266422 -82.86908228 231.75739721 -82.87664795 230.06213379 C-82.8943255 225.45672821 -82.89900406 220.85139694 -82.90027952 216.24596071 C-82.9021784 212.40151476 -82.90953579 208.55708613 -82.91662371 204.71264684 C-82.93291186 195.6424016 -82.93779227 186.57219606 -82.93637085 177.50193787 C-82.93516922 168.14516819 -82.95627439 158.7886291 -82.98785818 149.43191779 C-83.01400836 141.39867779 -83.02473868 133.36551316 -83.02346003 125.33223093 C-83.02295004 120.53430285 -83.02865392 115.73657969 -83.04981613 110.938694 C-83.06917741 106.42586788 -83.06933752 101.91344258 -83.05478287 97.40060234 C-83.05269105 95.74540433 -83.05741786 94.09018137 -83.06950378 92.43502617 C-83.0849505 90.17289311 -83.07565359 87.91214314 -83.0602417 85.65003967 C-83.06133123 84.38500422 -83.06242077 83.11996876 -83.06354332 81.81659889 C-82.35609736 76.94339222 -80.14072617 73.87159043 -76.59913635 70.53474426 C-74.21187926 69.18804599 -72.7605447 69.02075699 -70.03182983 69.03465271 C-69.14022659 69.03099701 -68.24862335 69.02734131 -67.33000183 69.02357483 C-66.37268661 69.03287018 -65.4153714 69.04216553 -64.42904663 69.05174255 C-62.38672578 69.03922409 -60.34440806 69.0261867 -58.30209351 69.01268005 C-55.09405311 69.00876034 -51.88632454 69.01264316 -48.67831421 69.02732849 C-45.57392635 69.03594847 -42.47082177 69.01412621 -39.36654663 68.98924255 C-37.94575554 69.00925827 -37.94575554 69.00925827 -36.4962616 69.02967834 C-29.81658305 68.95635635 -24.82332771 67.64388405 -19.56576538 63.38768005 C-14.27516811 57.81379606 -13.87046096 52.1542446 -13.99935913 44.75486755 C-13.99372452 43.75939911 -13.9880899 42.76393066 -13.98228455 41.73829651 C-13.96591405 38.57927007 -13.981318 35.4216565 -14.00326538 32.26268005 C-14.01988787 29.09669765 -14.02892669 25.93163727 -14.01353455 22.76564026 C-14.00429078 20.8023193 -14.01329746 18.83880214 -14.04316711 16.87568665 C-14.02046104 11.20146755 -13.45384597 7.82961463 -9.56576538 3.38768005 C-6.37302702 0.47405729 -4.28834672 0.01058906 0 0 Z " fill="#FEFDFE" transform="translate(228.56576538085938,126.61231994628906)"/>
<path d="M0 0 C1.03512726 -0.01283524 2.07025452 -0.02567047 3.13674927 -0.03889465 C4.26064056 -0.04628159 5.38453186 -0.05366852 6.54248047 -0.0612793 C7.69706757 -0.06935104 8.85165466 -0.07742279 10.04122925 -0.08573914 C12.49084975 -0.09959158 14.94048965 -0.11030852 17.39013672 -0.11816406 C21.12358683 -0.13533213 24.85614134 -0.17920424 28.58935547 -0.22338867 C30.96955729 -0.23351936 33.34976665 -0.24203429 35.72998047 -0.2487793 C36.84172638 -0.26628738 37.95347229 -0.28379547 39.09890747 -0.30183411 C46.74083273 -0.28062337 52.22848319 0.75360236 58.09326172 6.02856445 C58.54830078 6.61379883 59.00333984 7.1990332 59.47216797 7.80200195 C59.94525391 8.39239258 60.41833984 8.9827832 60.90576172 9.59106445 C63.47145292 13.19546109 63.21313103 16.54409924 63.23779297 20.81762695 C63.24349304 21.57742859 63.24919312 22.33723022 63.25506592 23.12005615 C63.26451989 24.73065803 63.27105148 26.34127928 63.27490234 27.9519043 C63.28457559 30.40358827 63.31558047 32.85442222 63.34716797 35.3059082 C63.35370149 36.87230949 63.35895059 38.43871676 63.36279297 40.00512695 C63.37513977 40.73346741 63.38748657 41.46180786 63.40020752 42.21221924 C63.37613645 47.77716045 62.13678707 51.84574191 58.38623047 56.00512695 C57.81646484 56.4743457 57.24669922 56.94356445 56.65966797 57.42700195 C55.81275391 58.14629883 55.81275391 58.14629883 54.94873047 58.88012695 C51.05590698 61.51771348 47.48541871 62.42753927 42.82055664 62.48339844 C41.29823677 62.50737953 41.29823677 62.50737953 39.74516296 62.53184509 C38.6586293 62.53720779 37.57209564 62.5425705 36.45263672 62.5480957 C35.32449051 62.55712418 34.1963443 62.56615265 33.03401184 62.57545471 C30.64941049 62.58994717 28.26476947 62.59884144 25.88012695 62.60253906 C22.24540655 62.61442595 18.61238923 62.66361697 14.97802734 62.71411133 C12.65707206 62.72357717 10.33610638 62.73081143 8.01513672 62.7355957 C6.39444527 62.76489418 6.39444527 62.76489418 4.74101257 62.79478455 C-3.58916626 62.74535883 -8.08589847 60.44389337 -14.34033203 55.17700195 C-18.0471099 50.61481381 -18.28370951 45.93162419 -18.30126953 40.2434082 C-18.30792633 39.48785141 -18.31458313 38.73229462 -18.32144165 37.95384216 C-18.33153356 36.36117984 -18.33625974 34.76847552 -18.3359375 33.17578125 C-18.34031247 30.75034452 -18.37666988 28.32672679 -18.41455078 25.90161133 C-18.42041954 24.34888313 -18.42438854 22.79614635 -18.42626953 21.2434082 C-18.44064056 20.52447891 -18.4550116 19.80554962 -18.46981812 19.06483459 C-18.41557862 13.03435227 -16.28601168 9.51236945 -12.11376953 5.3137207 C-11.52853516 4.83547852 -10.94330078 4.35723633 -10.34033203 3.86450195 C-9.74994141 3.37336914 -9.15955078 2.88223633 -8.55126953 2.3762207 C-5.60783756 0.15052214 -3.63736054 0.03922034 0 0 Z " fill="#D548EB" transform="translate(233.96533203125,195.822998046875)"/>
</svg>
